<svg id="图层_1" data-name="图层 1" xmlns="http://www.w3.org/2000/svg" xmlns:xlink="http://www.w3.org/1999/xlink" viewBox="0 0 48 48"><defs><style>.cls-1{fill:#ccc;}.cls-2{fill:none;stroke-linecap:round;stroke-linejoin:round;stroke-width:2px;stroke:url(#未命名的渐变_9);}</style><linearGradient id="未命名的渐变_9" x1="5.88" y1="23.06" x2="41.47" y2="23.06" gradientUnits="userSpaceOnUse"><stop offset="0" stop-color="#ed1c24"/><stop offset="1" stop-color="#2e3192"/></linearGradient></defs><title>LOGO画板 1</title><ellipse class="cls-1" cx="24" cy="40.75" rx="18.48" ry="0.99"/><path class="cls-2" d="M14.43,38.66a1.71,1.71,0,0,0,2.13,1.12M39.27,33,16.56,39.78m-2.85-4.92.72,3.8m26-7.72L32.53,13.45M12,17.8,30.4,12.33M14.21,15.39l1.51,4.8m13-3.86-1.51-4.8m-8.67-5a6.89,6.89,0,0,0-4.31,8.86m13-3.86a7.16,7.16,0,0,0-8.67-5M39.27,33a1.64,1.64,0,0,0,1.12-2.08M12,17.8a1.64,1.64,0,0,0-1.12,2.08M32.69,14a2,2,0,0,0-2.29-1.65M11.62,35.41l18.94-5.63m-5.83-3.51L10.11,30.61M14.57,24l8.65-2.58m-10.8,3.21L8.87,25.73m.6,10.32-2.59.77m4-16.94.93,4.91"/></svg>